<svg version="1.1" id="Layer_1" xmlns="http://www.w3.org/2000/svg" xmlns:xlink="http://www.w3.org/1999/xlink" x="0px" y="0px"
	 width="100%" viewBox="0 0 1024 1024" enable-background="new 0 0 1024 1024" xml:space="preserve">
<path fill="#000000" opacity="1.000000" stroke="none" 
	d="
M313.587555,505.676331 
	C318.699036,492.278870 323.686981,479.250763 328.651245,466.284546 
	C325.595001,463.727814 322.223572,463.118530 319.280273,461.645203 
	C317.947266,460.977997 316.209930,460.548187 316.630341,458.593536 
	C316.979553,456.969849 318.586578,456.943665 319.897247,456.934479 
	C326.062378,456.891174 332.228241,456.896515 338.393402,456.941681 
	C339.732880,456.951477 341.173859,457.108154 341.494537,458.816315 
	C341.755066,460.204254 340.819794,461.153015 339.738800,461.531128 
	C332.762482,463.971436 331.293579,470.296661 329.068817,476.190948 
	C320.072266,500.026245 311.013672,523.838196 301.908936,547.632324 
	C301.299896,549.223877 301.296570,551.330261 298.350189,552.448853 
	C291.125824,532.684570 283.918976,512.968140 276.176117,491.785400 
	C268.121277,512.858459 260.596802,532.544006 253.031937,552.335266 
	C250.082901,550.994812 249.976028,548.994995 249.382080,547.351746 
	C240.212860,521.984436 231.045639,496.616302 221.957199,471.220001 
	C220.219818,466.365112 219.223709,461.067322 212.553955,460.600891 
	C211.794144,460.547729 211.150360,459.745117 211.189026,458.761047 
	C214.384445,456.154175 239.683151,455.949585 243.751099,458.601837 
	C242.858261,461.574463 240.250290,461.068512 238.078979,461.362518 
	C235.238754,461.747040 233.879669,462.818085 235.063629,466.026093 
	C242.383469,485.859589 249.591995,505.734131 256.856781,525.588013 
	C257.017548,526.027344 257.407104,526.382935 258.153473,527.424438 
	C262.178894,516.972290 265.094696,506.470062 270.112732,497.092743 
	C276.809937,484.577454 269.529144,474.701813 266.030762,463.994873 
	C265.265564,461.652863 262.571655,461.682800 260.451721,461.377106 
	C258.500336,461.095734 256.398499,461.287292 255.146805,459.278168 
	C257.698395,456.044861 286.039917,455.645599 290.045746,458.915771 
	C288.808289,461.146088 286.629333,461.229950 284.510254,461.306488 
	C281.906494,461.400635 280.737854,462.474762 281.708099,465.111389 
	C289.180634,485.417877 296.664185,505.720337 304.165558,526.016235 
	C304.256622,526.262573 304.626984,526.405701 305.320923,526.958984 
	C308.078369,519.877258 310.771179,512.961487 313.587555,505.676331 
z"/>
<path fill="#000000" opacity="1.000000" stroke="none" 
	d="
M184.855179,466.430115 
	C185.113663,462.628235 182.928345,461.729553 180.213425,461.374115 
	C178.280563,461.121094 176.149429,461.348175 174.979370,459.171082 
	C175.351242,456.455383 177.541199,456.933563 179.212479,456.918549 
	C187.871902,456.840942 196.532608,456.848877 205.192307,456.909027 
	C206.735657,456.919769 209.014313,456.502838 208.937866,458.979736 
	C208.870132,461.174042 206.697067,461.261292 205.105453,461.228973 
	C200.247040,461.130310 199.011108,463.585632 199.042023,468.109406 
	C199.202484,491.590759 199.263428,515.075684 198.985596,538.554932 
	C198.925034,543.674011 200.226456,546.424194 205.547226,546.642700 
	C206.972794,546.701172 208.686676,546.614075 208.989578,548.698486 
	C205.999161,550.810364 180.303131,551.203979 175.144485,549.188782 
	C174.994843,546.297974 177.339905,546.694641 178.938766,546.584778 
	C183.791245,546.251343 185.165054,543.807373 184.997894,539.062134 
	C184.634613,528.749146 184.777130,518.413269 184.929504,508.089935 
	C184.983932,504.402588 183.600754,503.104034 179.948273,503.157776 
	C168.958755,503.319519 157.963760,503.348785 146.974747,503.180206 
	C143.096497,503.120728 142.206543,504.806061 142.255890,508.301208 
	C142.408630,519.124329 142.475235,529.954712 142.224167,540.774109 
	C142.139160,544.437500 143.522842,545.732483 146.878113,546.327209 
	C148.815170,546.670593 151.767593,545.819397 152.696762,549.755005 
	C141.080429,549.755005 129.840454,549.755005 118.576576,549.755005 
	C118.048149,546.506897 120.332314,546.693420 122.006012,546.627441 
	C127.576721,546.407715 128.858292,543.569885 128.787827,538.232056 
	C128.480011,514.920166 128.547394,491.600891 128.757370,468.286804 
	C128.798462,463.724518 127.511665,461.369659 122.808472,461.288910 
	C120.806671,461.254547 118.877151,460.877991 117.982460,458.667328 
	C121.940338,456.121368 148.572021,456.108154 152.531204,458.594055 
	C151.638458,461.560883 149.025604,461.113953 146.865036,461.343506 
	C143.709549,461.678741 142.191376,463.046448 142.254532,466.483490 
	C142.425858,475.806763 142.401367,485.136230 142.279236,494.460938 
	C142.237457,497.649902 143.374069,498.955292 146.627380,498.926910 
	C157.784790,498.829590 168.945068,498.805237 180.101242,498.964569 
	C183.900009,499.018829 184.984314,497.387085 184.924316,493.853607 
	C184.771652,484.863159 184.866470,475.868500 184.855179,466.430115 
z"/>
<path fill="#000000" opacity="1.000000" stroke="none" 
	d="
M494.007019,546.709229 
	C495.856506,547.069397 496.955139,547.648071 496.454681,549.734375 
	C485.266357,549.734375 474.031372,549.734375 462.395538,549.734375 
	C463.443695,545.576965 466.648132,546.546021 468.684082,546.145569 
	C471.800049,545.532776 472.729980,544.177246 472.719177,541.123901 
	C472.631470,516.296082 472.615540,491.467560 472.752686,466.640167 
	C472.773407,462.888519 471.090210,461.613647 467.781952,461.318665 
	C465.731720,461.135803 463.321075,461.487854 462.495239,458.905304 
	C462.685211,457.457642 463.617920,457.016785 464.645233,457.020538 
	C480.603638,457.078552 496.674194,455.415710 512.445923,458.885803 
	C528.176086,462.346741 535.367554,476.427765 529.380493,490.958221 
	C526.344116,498.327301 520.236145,501.630157 513.097839,503.682526 
	C512.046326,503.984863 511.001617,504.310822 508.931702,504.933136 
	C523.834167,508.296570 527.903381,518.863281 529.307007,531.415894 
	C529.638489,534.380249 530.087402,537.359924 530.826843,540.244141 
	C532.256897,545.822021 534.356018,546.599121 539.458435,543.758545 
	C540.808411,543.006958 542.269897,541.125732 543.676086,543.281494 
	C544.924988,545.196167 542.998047,546.270203 541.789429,547.306091 
	C531.597961,556.041260 518.166870,551.661377 515.560852,538.672546 
	C514.417908,532.976135 513.710632,527.193420 512.755310,521.458191 
	C510.414459,507.404755 502.145905,504.834076 489.024628,505.544952 
	C486.856049,505.662384 486.338379,507.053131 486.343170,508.971375 
	C486.370575,519.968933 486.385010,530.966797 486.336670,541.964233 
	C486.312683,547.415466 490.974548,545.414856 494.007019,546.709229 
M515.684692,475.117432 
	C514.742493,467.988800 510.432526,463.950989 503.758911,462.014130 
	C499.521027,460.784210 495.187653,461.362030 490.893890,461.143677 
	C487.465118,460.969299 486.202393,462.395325 486.287201,465.845947 
	C486.470856,473.316376 486.336334,480.794525 486.338501,488.269531 
	C486.342590,502.261200 486.344513,502.261230 500.466278,501.713745 
	C508.763519,501.392059 514.851501,495.809753 515.625122,487.441833 
	C515.975037,483.656952 515.726440,479.816681 515.684692,475.117432 
z"/>
<path fill="#000000" opacity="1.000000" stroke="none" 
	d="
M875.302368,462.960571 
	C875.092224,475.539429 875.092224,487.808502 875.092224,499.484894 
	C886.653442,488.395813 898.398254,477.130676 910.690002,465.340881 
	C906.998596,463.793121 903.989868,462.545380 900.993713,461.268158 
	C899.886902,460.796417 898.835327,460.169067 899.023438,458.741455 
	C899.219238,457.255188 900.477783,456.985626 901.643250,456.976196 
	C908.803101,456.918304 915.963501,456.910431 923.123596,456.938629 
	C924.276001,456.943146 925.588440,457.058624 925.958618,458.469421 
	C926.382385,460.084167 925.283630,460.975800 924.032104,461.559814 
	C911.359314,467.473907 903.928223,479.250122 894.026306,488.262817 
	C891.327637,490.719055 891.610901,492.590759 893.578247,495.436523 
	C903.709961,510.091888 913.664307,524.871033 923.556641,539.689697 
	C925.835876,543.103943 928.046936,546.267212 932.583618,546.671692 
	C933.973511,546.795654 935.229004,547.315918 934.757446,549.772339 
	C923.645874,549.772339 912.440186,549.772339 900.714294,549.772339 
	C902.345276,545.041504 907.088806,547.580322 909.576416,544.157776 
	C900.347900,530.200623 890.891052,515.898254 881.301331,501.394775 
	C876.937683,504.628021 874.670593,507.957947 874.813904,513.058655 
	C875.075806,522.376709 875.065674,531.717346 874.701172,541.030334 
	C874.562988,544.562256 875.773438,545.588623 878.930542,546.215149 
	C880.951721,546.616211 883.830994,545.730713 885.517700,550.142944 
	C873.681885,550.508911 862.452332,550.430481 850.689819,550.228760 
	C851.635315,545.799438 854.609741,546.620544 856.499512,546.266418 
	C859.732117,545.660889 860.879578,544.214233 860.865112,540.918762 
	C860.756958,516.270020 860.736816,491.620300 860.865112,466.971802 
	C860.885315,463.094299 859.319885,461.508636 855.688599,461.299835 
	C853.896057,461.196777 851.973328,461.169006 850.995667,459.140717 
	C851.261658,456.691132 853.219421,456.938904 854.767334,456.927094 
	C863.593811,456.859741 872.421143,456.871368 881.247864,456.917755 
	C882.668274,456.925232 884.693115,456.635223 884.824463,458.660797 
	C884.971375,460.924835 882.796875,460.964508 881.220764,461.192474 
	C879.254333,461.476898 877.201233,461.310974 875.302368,462.960571 
z"/>
<path fill="#000000" opacity="1.000000" stroke="none" 
	d="
M624.814941,537.753723 
	C611.823669,552.029724 596.018677,556.044800 578.290344,550.634094 
	C560.715637,545.270325 551.929321,531.888184 548.667664,514.397095 
	C546.403687,502.256256 547.551514,490.371155 552.897217,479.306000 
	C561.120178,462.285248 575.260864,454.005310 594.012573,454.852356 
	C612.200928,455.673981 625.354187,465.010834 631.776672,482.033600 
	C639.087097,501.409607 637.477478,520.233521 624.814941,537.753723 
M588.163330,458.573242 
	C574.079224,461.006958 567.030273,470.417725 564.410889,483.508667 
	C561.978638,495.663605 562.799805,508.097351 563.697510,520.320068 
	C564.418152,530.133301 568.432739,539.132996 577.204468,544.842529 
	C589.318420,552.727661 610.714661,551.010559 617.501038,529.858459 
	C622.939087,512.908813 622.500854,495.318420 617.752563,478.252014 
	C613.992493,464.737213 603.277954,458.040131 588.163330,458.573242 
z"/>
<path fill="#000000" opacity="1.000000" stroke="none" 
	d="
M791.348877,480.000732 
	C791.350891,486.166504 791.442627,491.834503 791.317322,497.497681 
	C791.252441,500.430420 792.267700,501.591034 795.342773,501.714569 
	C805.263977,502.113098 805.089905,502.150513 809.213074,493.048798 
	C810.518311,490.167542 810.361572,484.527466 814.609680,485.443207 
	C818.123962,486.200745 816.126038,491.272644 816.228577,494.378052 
	C816.492493,502.368134 816.332153,510.373291 816.276550,518.371948 
	C816.266724,519.786316 816.610168,521.610474 814.543762,521.999512 
	C812.629272,522.359863 811.963928,520.857056 811.382141,519.439209 
	C810.054810,516.204468 808.589600,513.012634 807.496643,509.699097 
	C806.381592,506.318542 804.372986,504.807800 800.796692,505.271057 
	C799.321411,505.462128 797.789551,505.425873 796.303589,505.283325 
	C792.747620,504.942230 791.205078,506.174835 791.280029,510.032349 
	C791.487183,520.693726 791.446716,531.363159 791.297180,542.026428 
	C791.249512,545.428589 792.321472,546.811584 795.866455,546.743774 
	C804.862122,546.571594 813.864563,546.599060 822.861389,546.736877 
	C825.802063,546.781921 827.423401,545.792175 828.387451,542.943176 
	C830.361206,537.110535 832.592041,531.362671 834.818176,525.619080 
	C835.444519,524.002991 835.774048,521.696045 838.219788,521.948364 
	C840.946533,522.229736 840.229553,524.629456 840.252747,526.295105 
	C840.345337,532.959717 840.209961,539.627930 840.335144,546.291443 
	C840.391968,549.318237 839.154968,550.397827 836.189941,550.388916 
	C814.526062,550.323547 792.861877,550.362427 771.197876,550.324402 
	C769.812622,550.321960 767.739014,550.770630 767.664490,548.626221 
	C767.592041,546.542236 769.622620,546.672546 771.057190,546.616760 
	C776.226318,546.415527 777.888794,543.991943 777.821716,538.705139 
	C777.523621,515.211609 777.586304,491.711426 777.766052,468.215607 
	C777.800476,463.715149 776.683777,461.223389 771.824036,461.236969 
	C770.058655,461.241882 768.078918,461.097107 767.426941,458.779419 
	C768.225342,456.299561 770.343811,456.924347 772.019043,456.919769 
	C792.183228,456.864716 812.347900,456.935547 832.511475,456.808502 
	C836.053528,456.786194 837.637939,457.649506 837.509155,461.556671 
	C837.317688,467.366241 837.786438,473.194763 837.815186,479.016022 
	C837.824280,480.860840 838.527100,483.462830 835.899109,484.030334 
	C833.235718,484.605499 832.793518,481.990417 832.100342,480.228363 
	C830.149902,475.270966 828.227478,470.295715 826.531799,465.247620 
	C825.539368,462.293121 823.918518,461.020844 820.700623,461.090240 
	C812.372070,461.269836 804.036194,461.235046 795.705505,461.119659 
	C792.517273,461.075470 791.180420,462.224091 791.308533,465.504181 
	C791.490662,470.163177 791.350891,474.834747 791.348877,480.000732 
z"/>
<path fill="#000000" opacity="1.000000" stroke="none" 
	d="
M383.625885,458.880432 
	C384.410919,456.739838 386.045166,456.899689 387.494354,456.925476 
	C400.956665,457.165070 414.421356,456.292419 427.886230,457.600433 
	C450.109283,459.759186 461.728973,482.132996 450.385101,501.445374 
	C445.022644,510.574707 436.136322,513.458801 426.327087,514.257812 
	C422.026062,514.608154 417.662506,514.618713 413.355194,514.345459 
	C408.926208,514.064453 406.986115,515.378113 407.256714,520.189087 
	C407.629974,526.825256 407.591919,533.510437 407.257355,540.150757 
	C407.056061,544.145630 408.454254,545.828003 412.334106,546.355957 
	C414.209686,546.611206 416.916382,545.816406 417.822388,548.687195 
	C417.219330,550.738892 415.488953,550.324036 414.104797,550.331970 
	C405.284393,550.382507 396.463165,550.393738 387.643188,550.313416 
	C386.159149,550.299927 383.809906,551.027405 383.716400,548.549316 
	C383.639099,546.502319 385.729858,546.677307 387.162018,546.638977 
	C392.483215,546.496399 393.876862,543.805847 393.815521,538.636475 
	C393.539124,515.339600 393.572388,492.036621 393.782227,468.738464 
	C393.825989,463.876465 392.835419,460.989014 387.381500,461.198151 
	C385.912811,461.254486 384.363159,460.902344 383.625885,458.880432 
M421.112091,461.232483 
	C417.950043,461.203278 414.782990,461.274811 411.627380,461.116974 
	C408.371918,460.954132 407.279175,462.373413 407.305969,465.568359 
	C407.420410,479.217468 407.401550,492.868378 407.318787,506.517944 
	C407.301239,509.410522 408.204285,510.900360 411.302917,510.775757 
	C414.960114,510.628784 418.640869,510.875702 422.283234,510.591248 
	C430.195587,509.973389 435.822021,505.166718 437.919952,497.398743 
	C439.598114,491.185059 439.064423,484.828094 438.690094,478.536041 
	C438.096191,468.553925 432.107361,462.513397 421.112091,461.232483 
z"/>
<path fill="#000000" opacity="1.000000" stroke="none" 
	d="
M735.000000,456.873535 
	C742.165710,456.874878 748.833618,456.979187 755.496277,456.836761 
	C759.149536,456.758698 760.536682,458.195435 760.399109,461.875458 
	C760.181335,467.699738 760.393311,473.538971 760.314026,479.370361 
	C760.293274,480.902496 760.949951,483.049896 758.629150,483.499908 
	C756.217651,483.967468 755.593567,481.856506 754.944702,480.181152 
	C753.080505,475.367981 751.203430,470.554047 749.555115,465.664978 
	C748.436279,462.346649 746.502625,461.088074 742.914551,461.045410 
	C729.312561,460.883759 729.313721,460.760895 729.314453,474.254669 
	C729.315674,495.918365 729.498962,517.584778 729.182007,539.243774 
	C729.109314,544.212402 730.731628,546.211914 735.394165,546.556274 
	C737.024414,546.676697 739.307129,546.214417 739.597412,549.678650 
	C728.184143,549.678650 716.863892,549.678650 705.096191,549.678650 
	C706.092712,545.648560 709.267334,546.621704 711.293823,546.213196 
	C714.489319,545.568787 715.721313,544.251953 715.706726,540.904236 
	C715.597900,515.908142 715.589661,490.910950 715.722534,465.915070 
	C715.742676,462.121063 714.324585,460.958344 710.735413,461.061432 
	C694.225037,461.535553 698.726868,458.575073 692.518188,473.464233 
	C691.365234,476.229126 690.342773,479.048157 689.223511,481.827454 
	C688.733582,483.043945 687.778809,483.628937 686.458008,483.486633 
	C684.905029,483.319305 684.699097,482.128052 684.696716,480.925049 
	C684.682983,473.926697 684.605103,466.925995 684.760925,459.930786 
	C684.839233,456.415649 687.801208,456.920044 690.006226,456.910217 
	C704.837280,456.844177 719.668701,456.874481 735.000000,456.873535 
z"/>
<path fill="#000000" opacity="1.000000" stroke="none" 
	d="
M649.880737,520.231445 
	C648.082336,517.069824 649.632080,515.969055 652.260803,515.924683 
	C658.713318,515.815674 665.168396,515.841064 671.622314,515.863281 
	C673.174072,515.868652 674.748718,516.196899 674.896973,518.137268 
	C675.078552,520.514038 673.168030,520.791016 671.539062,520.806580 
	C664.441833,520.874573 657.330200,521.511597 649.880737,520.231445 
z"/>
<path fill="#000000" opacity="1.000000" stroke="none" 
	d="
M363.844879,515.831665 
	C366.802155,516.392761 371.182281,514.247742 371.279816,518.185608 
	C371.391449,522.693787 366.780029,520.685791 364.245758,520.859375 
	C359.303101,521.197998 354.317719,520.984436 349.352478,520.881592 
	C347.708313,520.847534 345.820251,520.669861 345.875793,518.311768 
	C345.931061,515.967346 347.796082,515.904236 349.460632,515.881775 
	C354.095917,515.819153 358.732361,515.844727 363.844879,515.831665 
z"/>
</svg>